<svg version="1.1" id="Layer_1" xmlns="http://www.w3.org/2000/svg" xmlns:xlink="http://www.w3.org/1999/xlink" x="0px" y="0px"
	 width="100%" viewBox="0 0 1350 765" enable-background="new 0 0 1350 765" xml:space="preserve">
<path fill="#FD831E" opacity="1.000000" stroke="none" 
	d="
M44.000000,1.000000 
	C479.578125,1.000000 915.156250,1.000000 1351.000000,1.000000 
	C1351.000000,233.697525 1351.000000,466.395142 1350.581543,699.549255 
	C1347.871582,700.392700 1345.540161,700.622009 1343.294556,701.190369 
	C1315.775757,708.155151 1290.038208,703.026978 1265.879028,689.157043 
	C1239.473999,673.997742 1218.677368,652.592041 1200.372559,628.573059 
	C1187.213379,611.306030 1175.893188,593.199951 1168.279541,572.541687 
	C1162.504517,556.872437 1152.022095,543.907104 1136.105957,536.554565 
	C1118.244507,528.303528 1100.080688,529.911316 1081.949097,535.231750 
	C1061.431396,541.252197 1042.701172,551.156738 1025.637329,563.833130 
	C1015.876648,571.084167 1005.769226,577.041809 994.112793,580.394775 
	C990.593384,581.407043 987.104248,582.527588 983.614624,583.640259 
	C962.875122,590.253540 941.544495,593.885681 919.879517,594.831482 
	C903.376099,595.552002 886.975098,593.544800 871.054321,588.766174 
	C846.597717,581.425476 825.382874,568.974915 808.991089,548.631714 
	C808.427063,546.926270 808.180542,545.318237 807.269592,544.311218 
	C797.534546,533.550903 790.924866,520.936279 785.369751,507.697845 
	C784.826355,506.403015 784.533264,504.743378 784.819397,503.401276 
	C787.135925,492.534576 789.673706,481.714935 791.970947,470.844360 
	C792.216248,469.683563 791.354065,468.288696 791.007324,466.750366 
	C791.010925,466.330322 791.012756,466.162292 791.288086,465.816772 
	C793.013428,464.214569 795.367004,462.874115 791.997681,460.665436 
	C792.006165,459.887634 792.012024,459.443146 792.335571,458.913696 
	C795.577820,457.414124 795.219727,455.770355 792.991394,453.547974 
	C793.051575,451.269104 792.959045,449.418610 793.193237,447.610382 
	C796.274353,423.819092 795.771851,400.099121 790.793945,376.640442 
	C783.271790,341.191742 765.096497,312.643707 734.443848,292.666595 
	C703.195557,272.301208 668.047302,264.535431 631.534241,263.310425 
	C610.171814,262.593750 588.714233,265.280701 567.283997,265.812286 
	C553.827576,266.146088 540.309326,265.811493 526.878235,264.900818 
	C507.990387,263.620056 489.028046,262.398071 470.325500,259.617859 
	C413.053833,251.104126 358.659698,233.005814 306.470367,208.180008 
	C275.135956,193.274658 245.221054,175.807098 216.392502,156.521439 
	C173.816895,128.039291 134.509598,95.460068 97.668655,59.955318 
	C82.821030,45.646206 68.955147,30.306992 54.879292,15.215684 
	C50.828632,10.872807 47.603580,5.759875 44.000000,1.000000 
z"/>
<path fill="#FF6D1A" opacity="1.000000" stroke="none" 
	d="
M809.000000,549.008240 
	C825.382874,568.974915 846.597717,581.425476 871.054321,588.766174 
	C886.975098,593.544800 903.376099,595.552002 919.879517,594.831482 
	C941.544495,593.885681 962.875122,590.253540 983.614624,583.640259 
	C987.104248,582.527588 990.593384,581.407043 994.112793,580.394775 
	C1005.769226,577.041809 1015.876648,571.084167 1025.637329,563.833130 
	C1042.701172,551.156738 1061.431396,541.252197 1081.949097,535.231750 
	C1100.080688,529.911316 1118.244507,528.303528 1136.105957,536.554565 
	C1152.022095,543.907104 1162.504517,556.872437 1168.279541,572.541687 
	C1175.893188,593.199951 1187.213379,611.306030 1200.372559,628.573059 
	C1218.677368,652.592041 1239.473999,673.997742 1265.879028,689.157043 
	C1290.038208,703.026978 1315.775757,708.155151 1343.294556,701.190369 
	C1345.540161,700.622009 1347.871582,700.392700 1350.581543,700.002869 
	C1351.000000,721.995667 1351.000000,743.991333 1351.000000,765.990234 
	C901.092834,765.993530 451.185638,765.993530 1.139218,765.993530 
	C1.139218,511.000061 1.139218,256.000031 1.139218,1.000000 
	C15.068254,1.000000 29.065468,1.000000 43.531342,1.000000 
	C47.603580,5.759875 50.828632,10.872807 54.879292,15.215684 
	C68.955147,30.306992 82.821030,45.646206 97.668655,59.955318 
	C134.509598,95.460068 173.816895,128.039291 216.392502,156.521439 
	C245.221054,175.807098 275.135956,193.274658 306.470367,208.180008 
	C358.659698,233.005814 413.053833,251.104126 470.325500,259.617859 
	C489.028046,262.398071 507.990387,263.620056 526.878235,264.900818 
	C540.309326,265.811493 553.827576,266.146088 567.283997,265.812286 
	C588.714233,265.280701 610.171814,262.593750 631.534241,263.310425 
	C668.047302,264.535431 703.195557,272.301208 734.443848,292.666595 
	C765.096497,312.643707 783.271790,341.191742 790.793945,376.640442 
	C795.771851,400.099121 796.274353,423.819092 793.193237,447.610382 
	C792.959045,449.418610 793.051575,451.269104 792.793335,453.857178 
	C792.402283,456.075806 792.210083,457.537262 792.017883,458.998688 
	C792.012024,459.443146 792.006165,459.887634 791.798218,460.973419 
	C791.402344,463.074585 791.208435,464.534424 791.014587,465.994263 
	C791.012756,466.162292 791.010925,466.330322 790.802979,467.076141 
	C789.058716,475.133209 788.271118,482.869965 785.813354,490.033752 
	C781.725281,501.949493 782.744019,512.782715 790.015808,522.973389 
	C796.254150,531.715759 802.665283,540.334717 809.000000,549.008240 
M1127.500000,739.000000 
	C1165.811768,739.000000 1204.123657,739.000000 1243.830566,739.000000 
	C1237.636597,733.706116 1232.317627,729.880249 1227.874268,725.219849 
	C1216.976685,713.789551 1205.682007,702.598389 1196.003296,690.176392 
	C1179.027954,668.389404 1162.593994,646.095520 1153.544922,619.440613 
	C1152.053467,615.047607 1149.976440,610.812622 1147.800903,606.699890 
	C1139.683105,591.353638 1128.675781,579.136536 1111.504517,573.656372 
	C1096.068237,568.730103 1080.841309,570.572205 1065.842651,575.273071 
	C1040.844238,583.108337 1019.263489,597.170837 998.592041,612.852661 
	C990.831543,618.739990 983.276123,625.234009 974.685181,629.596130 
	C966.021729,633.995178 956.271484,636.370972 946.854187,639.147461 
	C913.766846,648.902527 880.143311,653.263489 845.752075,647.948303 
	C814.504456,643.118958 787.384460,629.674927 765.012085,607.351135 
	C751.493469,593.861938 740.810181,578.251404 733.093262,560.609375 
	C730.857849,555.498840 730.588562,550.997986 731.973450,545.745728 
	C738.439148,521.224731 742.362549,496.216461 743.799805,470.947235 
	C745.118164,447.767944 743.154175,424.734833 736.840637,402.209686 
	C725.513123,361.796143 701.101135,332.065460 663.847046,312.974091 
	C631.944763,296.625275 597.488098,290.163025 562.089111,289.260773 
	C543.377502,288.783844 524.606812,291.546631 505.846222,291.863586 
	C474.409576,292.394653 442.985077,292.411591 411.671051,288.201996 
	C381.049316,284.085449 350.993866,277.675079 321.581451,268.315308 
	C287.175415,257.366364 254.501358,242.494736 223.122299,224.631866 
	C182.238281,201.358200 145.341629,172.813705 111.226463,140.596008 
	C101.797211,131.691208 92.808052,122.263748 84.201065,112.558105 
	C71.080620,97.762894 58.297241,82.658188 45.711021,67.404129 
	C39.085476,59.374191 33.181831,50.748611 26.000025,41.114681 
	C26.000025,44.654953 26.000021,46.732147 26.000021,48.809345 
	C26.000031,275.614960 25.998415,502.420593 26.005110,729.226196 
	C26.005424,739.839966 25.101521,738.995911 35.633308,738.996094 
	C399.255554,739.000732 762.877747,739.000000 1127.500000,739.000000 
z"/>
<path fill="#FD821E" opacity="1.000000" stroke="none" 
	d="
M808.991089,548.631714 
	C802.665283,540.334717 796.254150,531.715759 790.015808,522.973389 
	C782.744019,512.782715 781.725281,501.949493 785.813354,490.033752 
	C788.271118,482.869965 789.058716,475.133209 790.801270,467.328186 
	C791.354065,468.288696 792.216248,469.683563 791.970947,470.844360 
	C789.673706,481.714935 787.135925,492.534576 784.819397,503.401276 
	C784.533264,504.743378 784.826355,506.403015 785.369751,507.697845 
	C790.924866,520.936279 797.534546,533.550903 807.269592,544.311218 
	C808.180542,545.318237 808.427063,546.926270 808.991089,548.631714 
z"/>
<path fill="#FD821E" opacity="1.000000" stroke="none" 
	d="
M792.335571,458.913696 
	C792.210083,457.537262 792.402283,456.075806 792.792480,454.305176 
	C795.219727,455.770355 795.577820,457.414124 792.335571,458.913696 
z"/>
<path fill="#FD821E" opacity="1.000000" stroke="none" 
	d="
M791.288086,465.816772 
	C791.208435,464.534424 791.402344,463.074585 791.795654,461.306763 
	C795.367004,462.874115 793.013428,464.214569 791.288086,465.816772 
z"/>
<path fill="#FD831E" opacity="1.000000" stroke="none" 
	d="
M1127.000000,739.000000 
	C762.877747,739.000000 399.255554,739.000732 35.633308,738.996094 
	C25.101521,738.995911 26.005424,739.839966 26.005110,729.226196 
	C25.998415,502.420593 26.000031,275.614960 26.000021,48.809345 
	C26.000021,46.732147 26.000025,44.654953 26.000025,41.114681 
	C33.181831,50.748611 39.085476,59.374191 45.711021,67.404129 
	C58.297241,82.658188 71.080620,97.762894 84.201065,112.558105 
	C92.808052,122.263748 101.797211,131.691208 111.226463,140.596008 
	C145.341629,172.813705 182.238281,201.358200 223.122299,224.631866 
	C254.501358,242.494736 287.175415,257.366364 321.581451,268.315308 
	C350.993866,277.675079 381.049316,284.085449 411.671051,288.201996 
	C442.985077,292.411591 474.409576,292.394653 505.846222,291.863586 
	C524.606812,291.546631 543.377502,288.783844 562.089111,289.260773 
	C597.488098,290.163025 631.944763,296.625275 663.847046,312.974091 
	C701.101135,332.065460 725.513123,361.796143 736.840637,402.209686 
	C743.154175,424.734833 745.118164,447.767944 743.799805,470.947235 
	C742.362549,496.216461 738.439148,521.224731 731.973450,545.745728 
	C730.588562,550.997986 730.857849,555.498840 733.093262,560.609375 
	C740.810181,578.251404 751.493469,593.861938 765.012085,607.351135 
	C787.384460,629.674927 814.504456,643.118958 845.752075,647.948303 
	C880.143311,653.263489 913.766846,648.902527 946.854187,639.147461 
	C956.271484,636.370972 966.021729,633.995178 974.685181,629.596130 
	C983.276123,625.234009 990.831543,618.739990 998.592041,612.852661 
	C1019.263489,597.170837 1040.844238,583.108337 1065.842651,575.273071 
	C1080.841309,570.572205 1096.068237,568.730103 1111.504517,573.656372 
	C1128.675781,579.136536 1139.683105,591.353638 1147.800903,606.699890 
	C1149.976440,610.812622 1152.053467,615.047607 1153.544922,619.440613 
	C1162.593994,646.095520 1179.027954,668.389404 1196.003296,690.176392 
	C1205.682007,702.598389 1216.976685,713.789551 1227.874268,725.219849 
	C1232.317627,729.880249 1237.636597,733.706116 1243.830566,739.000000 
	C1204.123657,739.000000 1165.811768,739.000000 1127.000000,739.000000 
z"/>
</svg>